<mxfile host="app.diagrams.net" modified="2023-06-19T15:25:40.148Z" agent="Mozilla/5.0 (Windows NT 10.0; Win64; x64) AppleWebKit/537.36 (KHTML, like Gecko) Chrome/114.0.0.0 Safari/537.36" etag="58NPKc7mA1AwzsBFRQjE" version="21.5.0" type="device">
  <diagram name="Halaman-1" id="QcM_v4b77sg4EotoPe2p">
    <mxGraphModel dx="1434" dy="729" grid="1" gridSize="10" guides="1" tooltips="1" connect="1" arrows="1" fold="1" page="1" pageScale="1" pageWidth="827" pageHeight="1169" math="0" shadow="0">
      <root>
        <mxCell id="0" />
        <mxCell id="1" parent="0" />
        <mxCell id="u4yl9TeXf4-urZHniM04-1" value="Activity Diagram Melakukan Ubah Kata Sandi Akun" style="swimlane;childLayout=stackLayout;resizeParent=1;resizeParentMax=0;startSize=20;html=1;" parent="1" vertex="1">
          <mxGeometry x="230" y="760" width="430" height="580" as="geometry" />
        </mxCell>
        <mxCell id="u4yl9TeXf4-urZHniM04-2" value="User" style="swimlane;startSize=20;html=1;align=center;" parent="u4yl9TeXf4-urZHniM04-1" vertex="1">
          <mxGeometry y="20" width="220" height="560" as="geometry" />
        </mxCell>
        <mxCell id="u4yl9TeXf4-urZHniM04-3" value="" style="ellipse;html=1;shape=startState;fillColor=#000000;strokeColor=#ff0000;" parent="u4yl9TeXf4-urZHniM04-2" vertex="1">
          <mxGeometry x="95" y="30" width="30" height="30" as="geometry" />
        </mxCell>
        <mxCell id="u4yl9TeXf4-urZHniM04-4" value="" style="edgeStyle=orthogonalEdgeStyle;html=1;verticalAlign=bottom;endArrow=open;endSize=8;strokeColor=#000000;rounded=0;" parent="u4yl9TeXf4-urZHniM04-2" source="u4yl9TeXf4-urZHniM04-3" edge="1">
          <mxGeometry relative="1" as="geometry">
            <mxPoint x="110" y="120" as="targetPoint" />
          </mxGeometry>
        </mxCell>
        <mxCell id="u4yl9TeXf4-urZHniM04-5" value="Login" style="rounded=1;whiteSpace=wrap;html=1;arcSize=40;fontColor=#000000;fillColor=default;strokeColor=default;" parent="u4yl9TeXf4-urZHniM04-2" vertex="1">
          <mxGeometry x="50" y="120" width="120" height="40" as="geometry" />
        </mxCell>
        <mxCell id="u4yl9TeXf4-urZHniM04-6" value="Memilih menu ganti password" style="rounded=1;whiteSpace=wrap;html=1;arcSize=40;fontColor=#000000;fillColor=default;strokeColor=default;" parent="u4yl9TeXf4-urZHniM04-2" vertex="1">
          <mxGeometry x="50" y="190" width="120" height="40" as="geometry" />
        </mxCell>
        <mxCell id="u4yl9TeXf4-urZHniM04-7" value="Melengkapi form ganti password" style="rounded=1;whiteSpace=wrap;html=1;arcSize=40;fontColor=#000000;fillColor=default;strokeColor=default;" parent="u4yl9TeXf4-urZHniM04-2" vertex="1">
          <mxGeometry x="50" y="270" width="120" height="40" as="geometry" />
        </mxCell>
        <mxCell id="u4yl9TeXf4-urZHniM04-8" value="Menekan tombol kembali" style="rounded=1;whiteSpace=wrap;html=1;arcSize=40;fontColor=#000000;fillColor=default;strokeColor=default;" parent="u4yl9TeXf4-urZHniM04-2" vertex="1">
          <mxGeometry x="10" y="340" width="90" height="30" as="geometry" />
        </mxCell>
        <mxCell id="u4yl9TeXf4-urZHniM04-9" value="Menekan tombol save" style="rounded=1;whiteSpace=wrap;html=1;arcSize=40;fontColor=#000000;fillColor=default;strokeColor=default;" parent="u4yl9TeXf4-urZHniM04-2" vertex="1">
          <mxGeometry x="120" y="340" width="90" height="30" as="geometry" />
        </mxCell>
        <mxCell id="u4yl9TeXf4-urZHniM04-10" value="Sistem" style="swimlane;startSize=20;html=1;" parent="u4yl9TeXf4-urZHniM04-1" vertex="1">
          <mxGeometry x="220" y="20" width="210" height="560" as="geometry" />
        </mxCell>
        <mxCell id="u4yl9TeXf4-urZHniM04-11" value="Menampilkan halaman ganti password" style="rounded=1;whiteSpace=wrap;html=1;arcSize=40;fontColor=#000000;fillColor=default;strokeColor=default;" parent="u4yl9TeXf4-urZHniM04-10" vertex="1">
          <mxGeometry x="40" y="185" width="130" height="50" as="geometry" />
        </mxCell>
        <mxCell id="u4yl9TeXf4-urZHniM04-12" value="Menampilkan landing page" style="rounded=1;whiteSpace=wrap;html=1;arcSize=40;fontColor=#000000;fillColor=default;strokeColor=default;" parent="u4yl9TeXf4-urZHniM04-10" vertex="1">
          <mxGeometry x="40" y="120" width="120" height="40" as="geometry" />
        </mxCell>
        <mxCell id="u4yl9TeXf4-urZHniM04-13" value="" style="ellipse;html=1;shape=endState;fillColor=#000000;strokeColor=#ff0000;" parent="u4yl9TeXf4-urZHniM04-10" vertex="1">
          <mxGeometry x="80" y="500" width="30" height="30" as="geometry" />
        </mxCell>
        <mxCell id="u4yl9TeXf4-urZHniM04-14" value="" style="edgeStyle=orthogonalEdgeStyle;rounded=0;orthogonalLoop=1;jettySize=auto;html=1;" parent="u4yl9TeXf4-urZHniM04-10" source="u4yl9TeXf4-urZHniM04-16" target="u4yl9TeXf4-urZHniM04-18" edge="1">
          <mxGeometry relative="1" as="geometry" />
        </mxCell>
        <mxCell id="u4yl9TeXf4-urZHniM04-15" value="" style="edgeStyle=orthogonalEdgeStyle;rounded=0;orthogonalLoop=1;jettySize=auto;html=1;" parent="u4yl9TeXf4-urZHniM04-10" source="u4yl9TeXf4-urZHniM04-16" target="u4yl9TeXf4-urZHniM04-20" edge="1">
          <mxGeometry relative="1" as="geometry" />
        </mxCell>
        <mxCell id="u4yl9TeXf4-urZHniM04-16" value="Condition" style="rhombus;whiteSpace=wrap;html=1;fontColor=#000000;fillColor=default;strokeColor=default;" parent="u4yl9TeXf4-urZHniM04-10" vertex="1">
          <mxGeometry x="40" y="330" width="110" height="50" as="geometry" />
        </mxCell>
        <mxCell id="u4yl9TeXf4-urZHniM04-17" value="" style="edgeStyle=orthogonalEdgeStyle;rounded=0;orthogonalLoop=1;jettySize=auto;html=1;" parent="u4yl9TeXf4-urZHniM04-10" source="u4yl9TeXf4-urZHniM04-18" target="u4yl9TeXf4-urZHniM04-13" edge="1">
          <mxGeometry relative="1" as="geometry" />
        </mxCell>
        <mxCell id="u4yl9TeXf4-urZHniM04-18" value="Menampilkan notif berhasil ubah profil" style="rounded=1;whiteSpace=wrap;html=1;arcSize=40;fontColor=#000000;fillColor=default;strokeColor=default;" parent="u4yl9TeXf4-urZHniM04-10" vertex="1">
          <mxGeometry x="40" y="410" width="110" height="40" as="geometry" />
        </mxCell>
        <mxCell id="u4yl9TeXf4-urZHniM04-19" style="edgeStyle=orthogonalEdgeStyle;rounded=0;orthogonalLoop=1;jettySize=auto;html=1;entryX=0.996;entryY=0.414;entryDx=0;entryDy=0;entryPerimeter=0;" parent="u4yl9TeXf4-urZHniM04-10" source="u4yl9TeXf4-urZHniM04-20" target="u4yl9TeXf4-urZHniM04-11" edge="1">
          <mxGeometry relative="1" as="geometry">
            <Array as="points">
              <mxPoint x="95" y="260" />
              <mxPoint x="200" y="260" />
              <mxPoint x="200" y="206" />
            </Array>
          </mxGeometry>
        </mxCell>
        <mxCell id="u4yl9TeXf4-urZHniM04-20" value="Menampilkan notif galat error" style="rounded=1;whiteSpace=wrap;html=1;arcSize=40;fontColor=#000000;fillColor=default;strokeColor=default;" parent="u4yl9TeXf4-urZHniM04-10" vertex="1">
          <mxGeometry x="40" y="270" width="110" height="40" as="geometry" />
        </mxCell>
        <mxCell id="u4yl9TeXf4-urZHniM04-21" value="" style="edgeStyle=orthogonalEdgeStyle;rounded=0;orthogonalLoop=1;jettySize=auto;html=1;" parent="u4yl9TeXf4-urZHniM04-1" source="u4yl9TeXf4-urZHniM04-6" target="u4yl9TeXf4-urZHniM04-11" edge="1">
          <mxGeometry relative="1" as="geometry" />
        </mxCell>
        <mxCell id="u4yl9TeXf4-urZHniM04-22" value="" style="edgeStyle=orthogonalEdgeStyle;rounded=0;orthogonalLoop=1;jettySize=auto;html=1;" parent="u4yl9TeXf4-urZHniM04-1" source="u4yl9TeXf4-urZHniM04-5" target="u4yl9TeXf4-urZHniM04-12" edge="1">
          <mxGeometry relative="1" as="geometry" />
        </mxCell>
        <mxCell id="u4yl9TeXf4-urZHniM04-23" style="edgeStyle=orthogonalEdgeStyle;rounded=0;orthogonalLoop=1;jettySize=auto;html=1;entryX=0.5;entryY=0;entryDx=0;entryDy=0;" parent="u4yl9TeXf4-urZHniM04-1" source="u4yl9TeXf4-urZHniM04-12" target="u4yl9TeXf4-urZHniM04-6" edge="1">
          <mxGeometry relative="1" as="geometry">
            <Array as="points">
              <mxPoint x="320" y="190" />
              <mxPoint x="110" y="190" />
            </Array>
          </mxGeometry>
        </mxCell>
        <mxCell id="u4yl9TeXf4-urZHniM04-24" style="edgeStyle=orthogonalEdgeStyle;rounded=0;orthogonalLoop=1;jettySize=auto;html=1;entryX=1;entryY=0.5;entryDx=0;entryDy=0;" parent="u4yl9TeXf4-urZHniM04-1" source="u4yl9TeXf4-urZHniM04-8" target="u4yl9TeXf4-urZHniM04-12" edge="1">
          <mxGeometry relative="1" as="geometry">
            <Array as="points">
              <mxPoint x="55" y="490" />
              <mxPoint x="410" y="490" />
              <mxPoint x="410" y="160" />
            </Array>
          </mxGeometry>
        </mxCell>
        <mxCell id="u4yl9TeXf4-urZHniM04-25" value="" style="edgeStyle=orthogonalEdgeStyle;rounded=0;orthogonalLoop=1;jettySize=auto;html=1;" parent="u4yl9TeXf4-urZHniM04-1" source="u4yl9TeXf4-urZHniM04-9" edge="1">
          <mxGeometry relative="1" as="geometry">
            <mxPoint x="260" y="375" as="targetPoint" />
          </mxGeometry>
        </mxCell>
        <mxCell id="u4yl9TeXf4-urZHniM04-26" style="edgeStyle=orthogonalEdgeStyle;rounded=0;orthogonalLoop=1;jettySize=auto;html=1;" parent="u4yl9TeXf4-urZHniM04-1" source="u4yl9TeXf4-urZHniM04-11" target="u4yl9TeXf4-urZHniM04-7" edge="1">
          <mxGeometry relative="1" as="geometry">
            <Array as="points">
              <mxPoint x="325" y="270" />
              <mxPoint x="110" y="270" />
            </Array>
          </mxGeometry>
        </mxCell>
        <mxCell id="u4yl9TeXf4-urZHniM04-27" value="" style="endArrow=none;html=1;rounded=0;" parent="1" edge="1">
          <mxGeometry width="50" height="50" relative="1" as="geometry">
            <mxPoint x="280" y="1100" as="sourcePoint" />
            <mxPoint x="400" y="1100" as="targetPoint" />
          </mxGeometry>
        </mxCell>
        <mxCell id="u4yl9TeXf4-urZHniM04-28" value="" style="endArrow=none;html=1;rounded=0;entryX=0.5;entryY=1;entryDx=0;entryDy=0;" parent="1" target="u4yl9TeXf4-urZHniM04-7" edge="1">
          <mxGeometry width="50" height="50" relative="1" as="geometry">
            <mxPoint x="340" y="1100" as="sourcePoint" />
            <mxPoint x="430" y="1140" as="targetPoint" />
          </mxGeometry>
        </mxCell>
        <mxCell id="u4yl9TeXf4-urZHniM04-29" value="" style="endArrow=classic;html=1;rounded=0;entryX=0.433;entryY=0.032;entryDx=0;entryDy=0;entryPerimeter=0;" parent="1" target="u4yl9TeXf4-urZHniM04-8" edge="1">
          <mxGeometry width="50" height="50" relative="1" as="geometry">
            <mxPoint x="280" y="1100" as="sourcePoint" />
            <mxPoint x="430" y="1140" as="targetPoint" />
          </mxGeometry>
        </mxCell>
        <mxCell id="u4yl9TeXf4-urZHniM04-30" value="" style="endArrow=classic;html=1;rounded=0;entryX=0.564;entryY=0.026;entryDx=0;entryDy=0;entryPerimeter=0;" parent="1" target="u4yl9TeXf4-urZHniM04-9" edge="1">
          <mxGeometry width="50" height="50" relative="1" as="geometry">
            <mxPoint x="400" y="1100" as="sourcePoint" />
            <mxPoint x="320" y="1020" as="targetPoint" />
          </mxGeometry>
        </mxCell>
        <mxCell id="u4yl9TeXf4-urZHniM04-31" value="yes" style="text;html=1;align=center;verticalAlign=middle;resizable=0;points=[];autosize=1;strokeColor=none;fillColor=none;" parent="1" vertex="1">
          <mxGeometry x="510" y="1158" width="40" height="30" as="geometry" />
        </mxCell>
        <mxCell id="u4yl9TeXf4-urZHniM04-32" value="no" style="text;html=1;align=center;verticalAlign=middle;resizable=0;points=[];autosize=1;strokeColor=none;fillColor=none;" parent="1" vertex="1">
          <mxGeometry x="540" y="1088" width="40" height="30" as="geometry" />
        </mxCell>
      </root>
    </mxGraphModel>
  </diagram>
</mxfile>
